<?xml version="1.0" encoding="UTF-8"?><svg xmlns="http://www.w3.org/2000/svg" width="1440" height="1060" viewBox="0 0 1440 1060" role="img" aria-labelledby="title desc"><title id="title">SeismoFlux G1-LS 背景模型结果总览</title><desc id="desc">数据支持率、模型流程、配对信息增益、置信区间、时窗诊断与父历史敏感性。</desc><rect x="0.0" y="0.0" width="1440.0" height="1060.0" rx="0.0" fill="#f5f7fb" stroke="none"/><text x="55.0" y="55.0" font-size="30" fill="#102a43" font-family="Microsoft YaHei, Noto Sans CJK SC, sans-serif">SeismoFlux · G1-LS 背景模型结果总览</text><text x="55.0" y="86.0" font-size="15" fill="#52667a" font-family="Microsoft YaHei, Noto Sans CJK SC, sans-serif">所有比较使用同一局部支持域、同一目标事件和同一补偿积分域；数值是条件强度信息增益，不是绝对发震概率。</text><rect x="1130.0" y="30.0" width="250.0" height="58.0" rx="10.0" fill="#13795b" stroke="none"/><text x="1170.0" y="68.0" font-size="22" fill="#ffffff" font-family="Microsoft YaHei, Noto Sans CJK SC, sans-serif">G1-LS 通过</text><rect x="40.0" y="115.0" width="1360.0" height="150.0" rx="12.0" fill="#ffffff" stroke="#d9e2ec"/><text x="65.0" y="148.0" font-size="21" fill="#102a43" font-family="Microsoft YaHei, Noto Sans CJK SC, sans-serif">用的数据与方法</text><rect x="65.0" y="165.0" width="210.0" height="72.0" rx="8.0" fill="#eaf2ff" stroke="#9fbff0"/><text x="79.0" y="191.0" font-size="17" fill="#174ea6" font-family="Microsoft YaHei, Noto Sans CJK SC, sans-serif">因果目录</text><text x="79.0" y="219.0" font-size="12" fill="#52667a" font-family="Microsoft YaHei, Noto Sans CJK SC, sans-serif">每个拟合截止日前已可用的地震</text><line x1="280.0" y1="201.0" x2="317.0" y2="201.0" stroke="#7b93ad" stroke-width="2.0"/><path d="M 311.0 195 L 319.0 201 L 311.0 207" fill="none" stroke="#7b93ad" stroke-width="2"/><rect x="330.0" y="165.0" width="210.0" height="72.0" rx="8.0" fill="#eaf2ff" stroke="#9fbff0"/><text x="344.0" y="191.0" font-size="17" fill="#174ea6" font-family="Microsoft YaHei, Noto Sans CJK SC, sans-serif">固定局部支持</text><text x="344.0" y="219.0" font-size="12" fill="#52667a" font-family="Microsoft YaHei, Noto Sans CJK SC, sans-serif">500 km格；raw Mc&gt;4只屏蔽本格</text><line x1="545.0" y1="201.0" x2="582.0" y2="201.0" stroke="#7b93ad" stroke-width="2.0"/><path d="M 576.0 195 L 584.0 201 L 576.0 207" fill="none" stroke="#7b93ad" stroke-width="2"/><rect x="595.0" y="165.0" width="210.0" height="72.0" rx="8.0" fill="#eaf2ff" stroke="#9fbff0"/><text x="609.0" y="191.0" font-size="17" fill="#174ea6" font-family="Microsoft YaHei, Noto Sans CJK SC, sans-serif">三类背景</text><text x="609.0" y="219.0" font-size="12" fill="#52667a" font-family="Microsoft YaHei, Noto Sans CJK SC, sans-serif">均匀 Poisson → KDE → ETAS</text><line x1="810.0" y1="201.0" x2="847.0" y2="201.0" stroke="#7b93ad" stroke-width="2.0"/><path d="M 841.0 195 L 849.0 201 L 841.0 207" fill="none" stroke="#7b93ad" stroke-width="2"/><rect x="860.0" y="165.0" width="210.0" height="72.0" rx="8.0" fill="#eaf2ff" stroke="#9fbff0"/><text x="874.0" y="191.0" font-size="17" fill="#174ea6" font-family="Microsoft YaHei, Noto Sans CJK SC, sans-serif">同域配对评分</text><text x="874.0" y="219.0" font-size="12" fill="#52667a" font-family="Microsoft YaHei, Noto Sans CJK SC, sans-serif">连续时间似然 + 补偿积分</text><line x1="1075.0" y1="201.0" x2="1112.0" y2="201.0" stroke="#7b93ad" stroke-width="2.0"/><path d="M 1106.0 195 L 1114.0 201 L 1106.0 207" fill="none" stroke="#7b93ad" stroke-width="2"/><rect x="1125.0" y="165.0" width="210.0" height="72.0" rx="8.0" fill="#eaf2ff" stroke="#9fbff0"/><text x="1139.0" y="191.0" font-size="17" fill="#174ea6" font-family="Microsoft YaHei, Noto Sans CJK SC, sans-serif">门控与选择</text><text x="1139.0" y="219.0" font-size="12" fill="#52667a" font-family="Microsoft YaHei, Noto Sans CJK SC, sans-serif">4 折稳定性 + 最终验证 + one-SE</text><rect x="40.0" y="285.0" width="650.0" height="285.0" rx="12.0" fill="#ffffff" stroke="#d9e2ec"/><text x="65.0" y="322.0" font-size="21" fill="#102a43" font-family="Microsoft YaHei, Noto Sans CJK SC, sans-serif">A. 每个快照保留的研究区面积</text><text x="65.0" y="346.0" font-size="13" fill="#52667a" font-family="Microsoft YaHei, Noto Sans CJK SC, sans-serif">预登记门槛为 95%；raw Mc&gt;4 只改变本格支持状态，不提高其他格的排除状态。</text><text x="65.0" y="395.0" font-size="14" fill="#243447" font-family="Microsoft YaHei, Noto Sans CJK SC, sans-serif">折1</text><rect x="160.0" y="378.0" width="450.0" height="20.0" rx="4.0" fill="#edf1f5" stroke="none"/><rect x="160.0" y="378.0" width="438.1" height="20.0" rx="4.0" fill="#277da1" stroke="none"/><text x="618.0" y="394.0" font-size="13" fill="#243447" font-family="Microsoft YaHei, Noto Sans CJK SC, sans-serif">97.34%</text><text x="65.0" y="431.0" font-size="14" fill="#243447" font-family="Microsoft YaHei, Noto Sans CJK SC, sans-serif">折2</text><rect x="160.0" y="414.0" width="450.0" height="20.0" rx="4.0" fill="#edf1f5" stroke="none"/><rect x="160.0" y="414.0" width="450.0" height="20.0" rx="4.0" fill="#277da1" stroke="none"/><text x="618.0" y="430.0" font-size="13" fill="#243447" font-family="Microsoft YaHei, Noto Sans CJK SC, sans-serif">100.00%</text><text x="65.0" y="467.0" font-size="14" fill="#243447" font-family="Microsoft YaHei, Noto Sans CJK SC, sans-serif">折3</text><rect x="160.0" y="450.0" width="450.0" height="20.0" rx="4.0" fill="#edf1f5" stroke="none"/><rect x="160.0" y="450.0" width="448.7" height="20.0" rx="4.0" fill="#277da1" stroke="none"/><text x="618.0" y="466.0" font-size="13" fill="#243447" font-family="Microsoft YaHei, Noto Sans CJK SC, sans-serif">99.72%</text><text x="65.0" y="503.0" font-size="14" fill="#243447" font-family="Microsoft YaHei, Noto Sans CJK SC, sans-serif">折4</text><rect x="160.0" y="486.0" width="450.0" height="20.0" rx="4.0" fill="#edf1f5" stroke="none"/><rect x="160.0" y="486.0" width="450.0" height="20.0" rx="4.0" fill="#277da1" stroke="none"/><text x="618.0" y="502.0" font-size="13" fill="#243447" font-family="Microsoft YaHei, Noto Sans CJK SC, sans-serif">100.00%</text><text x="65.0" y="539.0" font-size="14" fill="#243447" font-family="Microsoft YaHei, Noto Sans CJK SC, sans-serif">最终验证</text><rect x="160.0" y="522.0" width="450.0" height="20.0" rx="4.0" fill="#edf1f5" stroke="none"/><rect x="160.0" y="522.0" width="450.0" height="20.0" rx="4.0" fill="#277da1" stroke="none"/><text x="618.0" y="538.0" font-size="13" fill="#243447" font-family="Microsoft YaHei, Noto Sans CJK SC, sans-serif">100.00%</text><rect x="710.0" y="285.0" width="690.0" height="285.0" rx="12.0" fill="#ffffff" stroke="#d9e2ec"/><text x="735.0" y="322.0" font-size="21" fill="#102a43" font-family="Microsoft YaHei, Noto Sans CJK SC, sans-serif">B. 主评估：相对均匀基线的信息增益</text><text x="735.0" y="346.0" font-size="13" fill="#52667a" font-family="Microsoft YaHei, Noto Sans CJK SC, sans-serif">正值更好；同一行的模型在完全相同的目标与曝光上比较。</text><line x1="1105.0" y1="365.0" x2="1105.0" y2="545.0" stroke="#708090" stroke-width="1.2"/><text x="850.0" y="365.0" font-size="11" fill="#6b7c8f" font-family="Microsoft YaHei, Noto Sans CJK SC, sans-serif">−0.703</text><text x="1101.0" y="365.0" font-size="11" fill="#6b7c8f" font-family="Microsoft YaHei, Noto Sans CJK SC, sans-serif">0</text><text x="1320.0" y="365.0" font-size="11" fill="#6b7c8f" font-family="Microsoft YaHei, Noto Sans CJK SC, sans-serif">+0.703</text><text x="735.0" y="402.0" font-size="13" fill="#243447" font-family="Microsoft YaHei, Noto Sans CJK SC, sans-serif">折1</text><rect x="1105.0" y="390.0" width="193.8" height="9.0" rx="2.0" fill="#f8961e" stroke="none"/><text x="1320.0" y="412.0" font-size="10" fill="#8b98a5" font-family="Microsoft YaHei, Noto Sans CJK SC, sans-serif">未评分</text><text x="735.0" y="436.0" font-size="13" fill="#243447" font-family="Microsoft YaHei, Noto Sans CJK SC, sans-serif">折2</text><rect x="1105.0" y="424.0" width="214.4" height="9.0" rx="2.0" fill="#f8961e" stroke="none"/><text x="1320.0" y="446.0" font-size="10" fill="#8b98a5" font-family="Microsoft YaHei, Noto Sans CJK SC, sans-serif">未评分</text><text x="735.0" y="470.0" font-size="13" fill="#243447" font-family="Microsoft YaHei, Noto Sans CJK SC, sans-serif">折3</text><rect x="1105.0" y="458.0" width="209.2" height="9.0" rx="2.0" fill="#f8961e" stroke="none"/><text x="1320.0" y="480.0" font-size="10" fill="#8b98a5" font-family="Microsoft YaHei, Noto Sans CJK SC, sans-serif">未评分</text><text x="735.0" y="504.0" font-size="13" fill="#243447" font-family="Microsoft YaHei, Noto Sans CJK SC, sans-serif">折4</text><rect x="1105.0" y="492.0" width="221.7" height="9.0" rx="2.0" fill="#f8961e" stroke="none"/><text x="1320.0" y="514.0" font-size="10" fill="#8b98a5" font-family="Microsoft YaHei, Noto Sans CJK SC, sans-serif">未评分</text><text x="735.0" y="538.0" font-size="13" fill="#243447" font-family="Microsoft YaHei, Noto Sans CJK SC, sans-serif">最终验证</text><rect x="1105.0" y="526.0" width="145.9" height="9.0" rx="2.0" fill="#f8961e" stroke="none"/><text x="1320.0" y="548.0" font-size="10" fill="#8b98a5" font-family="Microsoft YaHei, Noto Sans CJK SC, sans-serif">未评分</text><rect x="1180.0" y="535.0" width="14.0" height="9.0" rx="2.0" fill="#f8961e" stroke="none"/><text x="1200.0" y="544.0" font-size="11" fill="#243447" font-family="Microsoft YaHei, Noto Sans CJK SC, sans-serif">空间 Poisson/KDE</text><rect x="1300.0" y="535.0" width="14.0" height="9.0" rx="2.0" fill="#577590" stroke="none"/><text x="1320.0" y="544.0" font-size="11" fill="#243447" font-family="Microsoft YaHei, Noto Sans CJK SC, sans-serif">ETAS</text><rect x="40.0" y="590.0" width="650.0" height="245.0" rx="12.0" fill="#ffffff" stroke="#d9e2ec"/><text x="65.0" y="627.0" font-size="21" fill="#102a43" font-family="Microsoft YaHei, Noto Sans CJK SC, sans-serif">C. 最终验证的 95% bootstrap 区间</text><text x="65.0" y="651.0" font-size="13" fill="#52667a" font-family="Microsoft YaHei, Noto Sans CJK SC, sans-serif">区间跨 0 表示证据不确定；门控仍按冻结规则判定。</text><line x1="417.5" y1="675.0" x2="417.5" y2="797.0" stroke="#708090" stroke-width="1.2"/><text x="65.0" y="710.0" font-size="14" fill="#243447" font-family="Microsoft YaHei, Noto Sans CJK SC, sans-serif">空间 Poisson/KDE</text><line x1="493.7" y1="704.0" x2="599.6" y2="704.0" stroke="#334e68" stroke-width="4.0"/><circle cx="547.6" cy="704.0" r="7" fill="#d64545"/><text x="505.0" y="710.0" font-size="12" fill="#243447" font-family="Microsoft YaHei, Noto Sans CJK SC, sans-serif">+0.4021 [+0.2356, +0.5629]</text><text x="65.0" y="774.0" font-size="14" fill="#243447" font-family="Microsoft YaHei, Noto Sans CJK SC, sans-serif">ETAS</text><text x="190.0" y="774.0" font-size="13" fill="#8b98a5" font-family="Microsoft YaHei, Noto Sans CJK SC, sans-serif">未计算（模型未产生合格最终分数）</text><rect x="710.0" y="590.0" width="690.0" height="245.0" rx="12.0" fill="#ffffff" stroke="#d9e2ec"/><text x="735.0" y="627.0" font-size="21" fill="#102a43" font-family="Microsoft YaHei, Noto Sans CJK SC, sans-serif">D. 次级时窗诊断（报告延迟 0 天）</text><text x="735.0" y="651.0" font-size="13" fill="#52667a" font-family="Microsoft YaHei, Noto Sans CJK SC, sans-serif">仅作积分诊断，不参与 G1-LS；正值代表优于均匀基线。</text><text x="916.0" y="686.0" font-size="12" fill="#243447" font-family="Microsoft YaHei, Noto Sans CJK SC, sans-serif">7天</text><rect x="900.0" y="700.0" width="75" height="42" rx="5" fill="#f8961e" fill-opacity="0.679"/><text x="913.0" y="727.0" font-size="12" fill="#172b4d" font-family="Microsoft YaHei, Noto Sans CJK SC, sans-serif">+0.402</text><rect x="900.0" y="758.0" width="75.0" height="42.0" rx="5.0" fill="#edf1f5" stroke="none"/><text x="913.0" y="785.0" font-size="12" fill="#172b4d" font-family="Microsoft YaHei, Noto Sans CJK SC, sans-serif">—</text><text x="1001.0" y="686.0" font-size="12" fill="#243447" font-family="Microsoft YaHei, Noto Sans CJK SC, sans-serif">30天</text><rect x="985.0" y="700.0" width="75" height="42" rx="5" fill="#f8961e" fill-opacity="0.688"/><text x="998.0" y="727.0" font-size="12" fill="#172b4d" font-family="Microsoft YaHei, Noto Sans CJK SC, sans-serif">+0.411</text><rect x="985.0" y="758.0" width="75.0" height="42.0" rx="5.0" fill="#edf1f5" stroke="none"/><text x="998.0" y="785.0" font-size="12" fill="#172b4d" font-family="Microsoft YaHei, Noto Sans CJK SC, sans-serif">—</text><text x="1086.0" y="686.0" font-size="12" fill="#243447" font-family="Microsoft YaHei, Noto Sans CJK SC, sans-serif">90天</text><rect x="1070.0" y="700.0" width="75" height="42" rx="5" fill="#f8961e" fill-opacity="0.679"/><text x="1083.0" y="727.0" font-size="12" fill="#172b4d" font-family="Microsoft YaHei, Noto Sans CJK SC, sans-serif">+0.402</text><rect x="1070.0" y="758.0" width="75.0" height="42.0" rx="5.0" fill="#edf1f5" stroke="none"/><text x="1083.0" y="785.0" font-size="12" fill="#172b4d" font-family="Microsoft YaHei, Noto Sans CJK SC, sans-serif">—</text><text x="1171.0" y="686.0" font-size="12" fill="#243447" font-family="Microsoft YaHei, Noto Sans CJK SC, sans-serif">180天</text><rect x="1155.0" y="700.0" width="75" height="42" rx="5" fill="#f8961e" fill-opacity="0.679"/><text x="1168.0" y="727.0" font-size="12" fill="#172b4d" font-family="Microsoft YaHei, Noto Sans CJK SC, sans-serif">+0.402</text><rect x="1155.0" y="758.0" width="75.0" height="42.0" rx="5.0" fill="#edf1f5" stroke="none"/><text x="1168.0" y="785.0" font-size="12" fill="#172b4d" font-family="Microsoft YaHei, Noto Sans CJK SC, sans-serif">—</text><text x="1256.0" y="686.0" font-size="12" fill="#243447" font-family="Microsoft YaHei, Noto Sans CJK SC, sans-serif">365天</text><rect x="1240.0" y="700.0" width="75" height="42" rx="5" fill="#f8961e" fill-opacity="0.679"/><text x="1253.0" y="727.0" font-size="12" fill="#172b4d" font-family="Microsoft YaHei, Noto Sans CJK SC, sans-serif">+0.402</text><rect x="1240.0" y="758.0" width="75.0" height="42.0" rx="5.0" fill="#edf1f5" stroke="none"/><text x="1253.0" y="785.0" font-size="12" fill="#172b4d" font-family="Microsoft YaHei, Noto Sans CJK SC, sans-serif">—</text><text x="735.0" y="727.0" font-size="13" fill="#243447" font-family="Microsoft YaHei, Noto Sans CJK SC, sans-serif">空间</text><text x="735.0" y="785.0" font-size="13" fill="#243447" font-family="Microsoft YaHei, Noto Sans CJK SC, sans-serif">ETAS</text><rect x="40.0" y="855.0" width="1360.0" height="150.0" rx="12.0" fill="#ffffff" stroke="#d9e2ec"/><text x="65.0" y="890.0" font-size="21" fill="#102a43" font-family="Microsoft YaHei, Noto Sans CJK SC, sans-serif">E. ETAS unsupported 父历史敏感性</text><text x="65.0" y="915.0" font-size="13" fill="#52667a" font-family="Microsoft YaHei, Noto Sans CJK SC, sans-serif">同一目标与支持域：比较纳入合格 unsupported 条件父事件和完全排除后的信息增益。</text><text x="595.0" y="945.0" font-size="13" fill="#52667a" font-family="Microsoft YaHei, Noto Sans CJK SC, sans-serif">纳入父历史</text><text x="815.0" y="945.0" font-size="13" fill="#52667a" font-family="Microsoft YaHei, Noto Sans CJK SC, sans-serif">完全排除</text><text x="1035.0" y="945.0" font-size="13" fill="#52667a" font-family="Microsoft YaHei, Noto Sans CJK SC, sans-serif">差值（排除−纳入）</text><text x="420.0" y="967.0" font-size="13" fill="#243447" font-family="Microsoft YaHei, Noto Sans CJK SC, sans-serif">折1</text><text x="610.0" y="967.0" font-size="13" fill="#243447" font-family="Microsoft YaHei, Noto Sans CJK SC, sans-serif">未评分</text><text x="830.0" y="967.0" font-size="13" fill="#243447" font-family="Microsoft YaHei, Noto Sans CJK SC, sans-serif">未评分</text><text x="1080.0" y="967.0" font-size="13" fill="#243447" font-family="Microsoft YaHei, Noto Sans CJK SC, sans-serif">—</text><text x="420.0" y="991.0" font-size="13" fill="#243447" font-family="Microsoft YaHei, Noto Sans CJK SC, sans-serif">折3</text><text x="610.0" y="991.0" font-size="13" fill="#243447" font-family="Microsoft YaHei, Noto Sans CJK SC, sans-serif">未评分</text><text x="830.0" y="991.0" font-size="13" fill="#243447" font-family="Microsoft YaHei, Noto Sans CJK SC, sans-serif">未评分</text><text x="1080.0" y="991.0" font-size="13" fill="#243447" font-family="Microsoft YaHei, Noto Sans CJK SC, sans-serif">—</text><text x="55.0" y="1042.0" font-size="15" fill="#334e68" font-family="Microsoft YaHei, Noto Sans CJK SC, sans-serif">最终 one-SE 选择：spatial_poisson/gaussian_kde_bw75km　｜　锁定测试：未运行　｜　unsupported 区域在后续全域指标中仍计为未覆盖</text></svg>